<svg xmlns="http://www.w3.org/2000/svg" viewBox="0 0 560 640" role="img" aria-labelledby="title desc">
  <title id="title">Rakshith Chandupatla profile illustration</title>
  <desc id="desc">A clean portfolio profile illustration with initials RC.</desc>
  <defs>
    <linearGradient id="bg" x1="0" y1="0" x2="1" y2="1">
      <stop offset="0" stop-color="#061420"/>
      <stop offset="1" stop-color="#020408"/>
    </linearGradient>
    <linearGradient id="accent" x1="0" y1="0" x2="1" y2="1">
      <stop offset="0" stop-color="#00c8ff"/>
      <stop offset="1" stop-color="#39ff87"/>
    </linearGradient>
    <filter id="glow" x="-40%" y="-40%" width="180%" height="180%">
      <feGaussianBlur stdDeviation="18" result="blur"/>
      <feColorMatrix in="blur" type="matrix" values="0 0 0 0 0  0 0 0 0 0.78  0 0 0 0 1  0 0 0 .45 0"/>
      <feBlend in="SourceGraphic"/>
    </filter>
  </defs>
  <rect width="560" height="640" rx="18" fill="url(#bg)"/>
  <path d="M0 520 C120 460 190 560 320 505 C430 460 455 360 560 390 L560 640 L0 640 Z" fill="#071c26"/>
  <g opacity=".22" stroke="#00c8ff" stroke-width="1">
    <path d="M40 80 H520"/>
    <path d="M40 160 H520"/>
    <path d="M40 240 H520"/>
    <path d="M40 320 H520"/>
    <path d="M40 400 H520"/>
    <path d="M120 40 V560"/>
    <path d="M240 40 V560"/>
    <path d="M360 40 V560"/>
    <path d="M480 40 V560"/>
  </g>
  <circle cx="280" cy="230" r="116" fill="#0a2633" stroke="#00c8ff" stroke-opacity=".45" stroke-width="2"/>
  <circle cx="280" cy="205" r="52" fill="url(#accent)" opacity=".95"/>
  <path d="M174 352 C194 288 236 260 280 260 C324 260 366 288 386 352 C352 382 316 396 280 396 C244 396 208 382 174 352 Z" fill="url(#accent)" opacity=".9"/>
  <g filter="url(#glow)">
    <rect x="98" y="460" width="364" height="92" rx="8" fill="#041018" stroke="#00c8ff" stroke-opacity=".5"/>
    <text x="280" y="520" text-anchor="middle" font-family="Arial, Helvetica, sans-serif" font-size="48" font-weight="700" fill="#e8f4f8" letter-spacing="8">RC</text>
  </g>
  <text x="280" y="582" text-anchor="middle" font-family="Arial, Helvetica, sans-serif" font-size="17" fill="#7a9db5">Healthcare Data Analyst</text>
</svg>
