<svg xmlns="http://www.w3.org/2000/svg" viewBox="0 0 1200 630" role="img" aria-labelledby="title desc">
  <title id="title">Rakshith Chandupatla portfolio social card</title>
  <desc id="desc">Social preview card for Rakshith Chandupatla, Data Analyst and ML Engineer.</desc>
  <defs>
    <linearGradient id="bg" x1="0" y1="0" x2="1" y2="1">
      <stop offset="0" stop-color="#0b1120"/>
      <stop offset=".55" stop-color="#0f172a"/>
      <stop offset="1" stop-color="#0b1120"/>
    </linearGradient>
  </defs>
  <rect width="1200" height="630" fill="url(#bg)"/>
  <g opacity=".12" stroke="#22c55e" stroke-width="1">
    <path d="M80 150 H1120"/><path d="M80 300 H1120"/><path d="M80 450 H1120"/>
    <path d="M300 60 V570"/><path d="M540 60 V570"/><path d="M780 60 V570"/><path d="M1020 60 V570"/>
  </g>
  <path d="M120 470 L300 420 L480 440 L660 330 L840 360 L1080 250" fill="none" stroke="#22c55e" stroke-width="4" stroke-linecap="round" opacity=".55"/>
  <rect x="78" y="92" width="1044" height="446" rx="20" fill="#0f172a" stroke="#22c55e" stroke-opacity=".3"/>
  <rect x="118" y="132" width="110" height="110" rx="16" fill="#131c30" stroke="#22c55e" stroke-opacity=".5"/>
  <text x="138" y="205" font-family="'JetBrains Mono', monospace" font-size="44" font-weight="800" fill="#f1f5f9">RC</text>
  <text x="118" y="316" font-family="'JetBrains Mono', monospace" font-size="62" font-weight="800" fill="#f1f5f9">Rakshith Chandupatla</text>
  <text x="118" y="372" font-family="'JetBrains Mono', monospace" font-size="32" font-weight="600" fill="#22c55e">// Data Analyst &amp; ML Engineer</text>
  <text x="118" y="430" font-family="'IBM Plex Sans', Arial, sans-serif" font-size="25" fill="#94a3b8">SQL • Python • Power BI/Tableau • Predictive Analytics • Risk Modeling</text>
  <rect x="118" y="472" width="510" height="6" rx="3" fill="#22c55e"/>
  <text x="118" y="518" font-family="'IBM Plex Sans', Arial, sans-serif" font-size="22" fill="#5b6b85">rakshithch.github.io</text>
</svg>
