<svg xmlns="http://www.w3.org/2000/svg" viewBox="0 0 1200 630" role="img" aria-labelledby="title desc">
  <title id="title">Rakshith Chandupatla portfolio social card</title>
  <desc id="desc">Social preview card for Rakshith Chandupatla, Healthcare Data Analyst.</desc>
  <defs>
    <linearGradient id="bg" x1="0" y1="0" x2="1" y2="1">
      <stop offset="0" stop-color="#020408"/>
      <stop offset=".55" stop-color="#071522"/>
      <stop offset="1" stop-color="#020408"/>
    </linearGradient>
    <linearGradient id="line" x1="0" y1="0" x2="1" y2="0">
      <stop offset="0" stop-color="#00c8ff"/>
      <stop offset="1" stop-color="#39ff87"/>
    </linearGradient>
  </defs>
  <rect width="1200" height="630" fill="url(#bg)"/>
  <g opacity=".16" stroke="#00c8ff" stroke-width="1">
    <path d="M80 90 H1120"/>
    <path d="M80 180 H1120"/>
    <path d="M80 270 H1120"/>
    <path d="M80 360 H1120"/>
    <path d="M80 450 H1120"/>
    <path d="M80 540 H1120"/>
    <path d="M180 60 V570"/>
    <path d="M360 60 V570"/>
    <path d="M540 60 V570"/>
    <path d="M720 60 V570"/>
    <path d="M900 60 V570"/>
    <path d="M1080 60 V570"/>
  </g>
  <rect x="78" y="92" width="1044" height="446" rx="18" fill="#06101a" stroke="#00c8ff" stroke-opacity=".35"/>
  <rect x="118" y="132" width="110" height="110" rx="14" fill="#071c26" stroke="#00c8ff" stroke-opacity=".5"/>
  <text x="173" y="204" text-anchor="middle" font-family="Arial, Helvetica, sans-serif" font-size="45" font-weight="700" fill="#00c8ff">RC</text>
  <text x="118" y="306" font-family="Arial, Helvetica, sans-serif" font-size="64" font-weight="800" fill="#e8f4f8">Rakshith Chandupatla</text>
  <text x="118" y="366" font-family="Arial, Helvetica, sans-serif" font-size="34" font-weight="700" fill="#00c8ff">Healthcare Data Analyst</text>
  <text x="118" y="426" font-family="Arial, Helvetica, sans-serif" font-size="26" fill="#9fb8c8">SQL • Python • Power BI/Tableau • Claims Analytics • HEDIS</text>
  <rect x="118" y="472" width="510" height="6" rx="3" fill="url(#line)"/>
  <text x="118" y="518" font-family="Arial, Helvetica, sans-serif" font-size="22" fill="#7a9db5">rakshithch.github.io</text>
</svg>
